HIERARCHY
ROOT joint_0
{
	OFFSET 0.000000 0.000000 0.000000
	CHANNELS 6 Xposition Yposition Zposition Zrotation Yrotation Xrotation 
	JOINT joint_1
	{
		OFFSET 11.612000 -0.419000 106.198000
		CHANNELS 3 Zrotation Yrotation Xrotation
		JOINT joint_2
		{
			OFFSET -1.708000 -1.022000 97.564090
			CHANNELS 3 Zrotation Yrotation Xrotation
			JOINT joint_3
			{
				OFFSET -4.121000 -1.538000 97.375000
				CHANNELS 3 Zrotation Yrotation Xrotation
				JOINT joint_4
				{
					OFFSET 5.442000 -2.123000 132.795900
					CHANNELS 3 Zrotation Yrotation Xrotation
					JOINT joint_5
					{
						OFFSET 21.935000 0.195000 82.975100
						CHANNELS 3 Zrotation Yrotation Xrotation
						End Site
						{
							OFFSET 0.000000 0.000000 0.000000
						}
					}
				}
				JOINT joint_6
				{
					OFFSET 4.262000 -30.048000 73.899900
					CHANNELS 3 Zrotation Yrotation Xrotation
					JOINT joint_7
					{
						OFFSET 9.731000 -136.810010 -21.963010
						CHANNELS 3 Zrotation Yrotation Xrotation
						JOINT joint_8
						{
							OFFSET 33.360000 -35.709000 -267.597900
							CHANNELS 3 Zrotation Yrotation Xrotation
							JOINT joint_9
							{
								OFFSET 36.156000 -29.759000 -240.558040
								CHANNELS 3 Zrotation Yrotation Xrotation
								End Site
								{
									OFFSET 0.000000 0.000000 0.000000
								}
							}
						}
					}
				}
				JOINT joint_10
				{
					OFFSET 2.027000 27.734000 74.914920
					CHANNELS 3 Zrotation Yrotation Xrotation
					JOINT joint_11
					{
						OFFSET -5.183000 136.784000 -23.604980
						CHANNELS 3 Zrotation Yrotation Xrotation
						JOINT joint_12
						{
							OFFSET 29.806000 37.229000 -267.809940
							CHANNELS 3 Zrotation Yrotation Xrotation
							JOINT joint_13
							{
								OFFSET 36.890000 46.524990 -237.772030
								CHANNELS 3 Zrotation Yrotation Xrotation
								End Site
								{
									OFFSET 0.000000 0.000000 0.000000
								}
							}
						}
					}
				}
			}
		}
	}
	JOINT joint_14
	{
		OFFSET -7.290000 -102.873990 -124.314940
		CHANNELS 3 Zrotation Yrotation Xrotation
		JOINT joint_15
		{
			OFFSET -15.466000 -19.909010 -438.533020
			CHANNELS 3 Zrotation Yrotation Xrotation
			JOINT joint_16
			{
				OFFSET -26.899000 -18.922000 -464.797000
				CHANNELS 3 Zrotation Yrotation Xrotation
				JOINT joint_17
				{
					OFFSET 179.329000 -12.011000 -84.174000
					CHANNELS 3 Zrotation Yrotation Xrotation
					End Site
					{
						OFFSET 0.000000 0.000000 0.000000
					}
				}
			}
		}
	}
	JOINT joint_18
	{
		OFFSET -6.225000 101.546000 -125.479980
		CHANNELS 3 Zrotation Yrotation Xrotation
		JOINT joint_19
		{
			OFFSET -13.973000 7.996000 -438.963010
			CHANNELS 3 Zrotation Yrotation Xrotation
			JOINT joint_20
			{
				OFFSET -44.294000 5.716000 -463.813970
				CHANNELS 3 Zrotation Yrotation Xrotation
				JOINT joint_21
				{
					OFFSET 178.505000 -4.689000 -85.139000
					CHANNELS 3 Zrotation Yrotation Xrotation
					End Site
					{
						OFFSET 0.000000 0.000000 0.000000
					}
				}
			}
		}
	}
}
MOTION
Frames: 13
Frame Time: 0.016667
-3350.568359 900.338196 1125.701050 1.044764 -4.623997 0.618324 -0.647087 5.676147 1.327907 -0.739052 -1.229094 -0.320229 -0.679746 1.206502 0.157803 0.079942 0.459565 -0.303638 0.000000 0.000000 0.000000 -0.333569 -0.915363 2.763929 -0.153100 -1.354520 -2.972269 1.030639 -5.082553 2.511420 0.000000 0.000000 0.000000 0.247824 -1.790767 -2.372986 -0.654655 -1.805595 1.166584 -2.012051 -5.375539 -6.386333 0.000000 0.000000 0.000000 -0.269787 3.939400 -0.768597 -0.181985 1.973527 -0.453325 -0.011815 -2.602182 -0.179663 0.000000 0.000000 0.000000 4.782744 3.683879 1.137037 4.748810 -1.273753 0.186771 4.598553 1.547805 2.226944 0.000000 0.000000 0.000000 
-3349.325195 899.848999 1125.765991 1.266394 -4.344737 0.654853 -0.578053 5.831041 1.322223 -0.668703 -1.249375 -0.300737 -0.610346 1.221564 0.141935 0.092575 -0.023259 -0.347492 0.000000 0.000000 0.000000 -0.864252 -0.675253 2.817040 -0.182152 -1.210770 -3.158897 1.198473 -5.704725 3.086385 0.000000 0.000000 0.000000 0.297027 -1.816190 -2.487404 -0.672588 -1.831020 1.358698 -2.125937 -5.716477 -6.670994 0.000000 0.000000 0.000000 -0.339381 3.783120 -0.797627 -0.256069 1.865961 -0.424637 -0.086523 -2.599993 -0.214523 0.000000 0.000000 0.000000 4.706809 3.457648 1.141239 4.675170 -1.351247 0.118027 4.523083 1.590995 2.192471 0.000000 0.000000 0.000000 
-3347.231934 899.340332 1125.852051 1.566723 -3.913288 0.699219 -0.556941 5.914120 1.342199 -0.645747 -1.252881 -0.296391 -0.587650 1.223761 0.138444 0.100375 -0.702977 -0.372140 0.000000 0.000000 0.000000 -1.186815 -0.346965 2.788782 -0.219610 -0.932951 -3.276865 1.393660 -6.387878 3.809188 0.000000 0.000000 0.000000 0.299103 -1.771115 -2.559296 -0.672017 -1.775013 1.584289 -2.231826 -5.920881 -7.098120 0.000000 0.000000 0.000000 -0.450672 3.521661 -0.851625 -0.378439 1.749969 -0.364437 -0.204803 -2.643688 -0.272884 0.000000 0.000000 0.000000 4.604684 3.128925 1.137479 4.575399 -1.478626 0.037468 4.422535 1.631617 2.146088 0.000000 0.000000 0.000000 
-3344.474609 898.780762 1125.965942 1.942183 -3.351302 0.754465 -0.568029 5.948506 1.388637 -0.653966 -1.231938 -0.305319 -0.595963 1.202995 0.141726 0.106712 -1.560630 -0.392022 0.000000 0.000000 0.000000 -1.408779 0.045023 2.736202 -0.265362 -0.570852 -3.375811 1.596649 -7.022891 4.646600 0.000000 0.000000 0.000000 0.268086 -1.698933 -2.632528 -0.651293 -1.679933 1.884327 -2.316819 -5.933884 -7.639257 0.000000 0.000000 0.000000 -0.598576 3.167514 -0.926260 -0.542976 1.624375 -0.276966 -0.361711 -2.716745 -0.351333 0.000000 0.000000 0.000000 4.478196 2.700842 1.128418 4.452137 -1.639117 -0.057908 4.299124 1.682405 2.089096 0.000000 0.000000 0.000000 
-3340.415039 898.320679 1126.043945 2.343980 -2.643823 0.801582 -0.584634 5.916912 1.445043 -0.666255 -1.205232 -0.328246 -0.607196 1.175703 0.158646 0.107083 -2.546802 -0.392372 0.000000 0.000000 0.000000 -1.468284 0.754174 2.367042 -0.351080 0.178871 -3.239479 2.065265 -9.525775 5.787566 0.000000 0.000000 0.000000 0.210496 -1.244959 -2.411665 -0.690915 -1.231008 1.823817 -2.692657 -7.401831 -8.332685 0.000000 0.000000 0.000000 -0.751692 2.785054 -0.989059 -0.708653 1.404548 -0.199411 -0.522188 -2.835036 -0.434504 0.000000 0.000000 0.000000 4.329383 2.292768 1.145680 4.305452 -1.988871 -0.186726 4.154627 1.684697 2.020616 0.000000 0.000000 0.000000 
-3334.604736 898.183411 1126.019043 2.742520 -1.748343 0.816999 -0.592759 5.765607 1.524696 -0.668295 -1.173372 -0.374229 -0.606272 1.144097 0.197005 0.100421 -3.657258 -0.374347 0.000000 0.000000 0.000000 -1.215575 2.105669 1.769589 -0.608993 1.669989 -2.983735 2.937534 -15.619868 7.263314 0.000000 0.000000 0.000000 0.113698 -0.046620 -1.889079 -0.793314 -0.064392 1.236365 -3.567978 -11.620099 -9.166522 0.000000 0.000000 0.000000 -0.891456 2.400594 -1.013832 -0.849648 1.001918 -0.157235 -0.666272 -2.995931 -0.512832 0.000000 0.000000 0.000000 4.156469 1.990732 1.217706 4.131071 -2.704700 -0.365225 3.989836 1.601283 1.939760 0.000000 0.000000 0.000000 
-3327.290283 898.313416 1125.916016 3.154284 -0.669707 0.806432 -0.601448 5.498124 1.646228 -0.668873 -1.125167 -0.439545 -0.603031 1.100240 0.242681 0.089680 -4.920964 -0.360205 0.000000 0.000000 0.000000 -0.667159 3.980528 1.469989 -1.163339 3.724297 -3.027458 3.894903 -24.454813 8.790496 0.000000 0.000000 0.000000 -0.027997 1.716572 -1.497797 -0.859883 1.708625 0.618034 -4.733082 -17.886443 -10.035202 0.000000 0.000000 0.000000 -1.029578 1.989050 -1.004423 -0.980840 0.446621 -0.140168 -0.807632 -3.174205 -0.590962 0.000000 0.000000 0.000000 3.958463 1.749141 1.341386 3.929015 -3.732430 -0.586030 3.809642 1.483100 1.849925 0.000000 0.000000 0.000000 
-3318.557861 898.160645 1125.838013 3.567471 0.458377 0.812170 -0.594333 5.293584 1.726007 -0.651592 -1.098487 -0.488540 -0.582213 1.074412 0.275067 0.070521 -6.238323 -0.336314 0.000000 0.000000 0.000000 -0.150856 5.771803 1.133995 -1.855051 5.675216 -3.112254 4.694848 -34.440961 10.351274 0.000000 0.000000 0.000000 -0.223574 3.437256 -1.117971 -0.926532 3.499512 0.242722 -6.002653 -25.475339 -10.908998 0.000000 0.000000 0.000000 -1.157859 1.613305 -0.963200 -1.097641 -0.120418 -0.152816 -0.935491 -3.386022 -0.664827 0.000000 0.000000 0.000000 3.748745 1.520489 1.507539 3.717632 -4.742524 -0.835247 3.625304 1.379129 1.757851 0.000000 0.000000 0.000000 
-3308.488770 897.305115 1125.860962 3.977711 1.567613 0.872979 -0.557094 5.283542 1.671975 -0.599891 -1.123275 -0.478521 -0.529157 1.090593 0.270950 0.039149 -7.611505 -0.292602 0.000000 0.000000 0.000000 0.167716 7.261246 0.328665 -2.551617 7.270464 -2.930591 5.371299 -45.515612 12.062621 0.000000 0.000000 0.000000 -0.578926 4.839699 -0.512178 -0.977151 5.053100 0.182671 -7.324037 -34.578765 -11.859298 0.000000 0.000000 0.000000 -1.262007 1.325878 -0.901856 -1.184948 -0.666710 -0.203835 -1.033558 -3.646780 -0.727739 0.000000 0.000000 0.000000 3.522223 1.294004 1.721187 3.494663 -5.594558 -1.136340 3.425291 1.328484 1.659280 0.000000 0.000000 0.000000 
-3297.056885 895.951843 1125.944946 4.393411 2.709309 0.974099 -0.497604 5.396395 1.519666 -0.519607 -1.166916 -0.419391 -0.450026 1.114850 0.232090 -0.005295 -9.072624 -0.243190 0.000000 0.000000 0.000000 0.329668 8.606387 -0.588004 -3.267854 8.575693 -2.766998 5.916591 -57.916298 13.787918 0.000000 0.000000 0.000000 -1.066071 6.066152 0.030010 -0.969619 6.532423 0.543014 -8.609601 -45.209734 -12.781527 0.000000 0.000000 0.000000 -1.345859 1.101576 -0.816827 -1.245247 -1.247629 -0.295135 -1.107436 -3.931679 -0.780569 0.000000 0.000000 0.000000 3.273956 1.085869 1.988357 3.252828 -6.416553 -1.492977 3.206287 1.332615 1.552632 0.000000 0.000000 0.000000 
-3284.102295 894.376038 1126.053955 4.801845 3.783628 1.085433 -0.445423 5.586251 1.387143 -0.446042 -1.196630 -0.364449 -0.376908 1.121784 0.190297 -0.054830 -10.339425 -0.186065 0.000000 0.000000 0.000000 0.309939 9.328599 -1.490576 -3.951359 9.104269 -2.935538 6.347058 -69.681722 15.380810 0.000000 0.000000 0.000000 -1.392007 6.792475 0.537859 -1.056136 7.488708 1.078642 -9.762920 -55.804594 -13.230238 0.000000 0.000000 0.000000 -1.444527 0.901087 -0.700255 -1.329841 -1.593473 -0.385468 -1.194938 -4.236204 -0.840700 0.000000 0.000000 0.000000 3.072598 0.824322 2.215871 3.058746 -6.868477 -1.754700 3.024459 1.278205 1.462147 0.000000 0.000000 0.000000 
-3269.610840 892.779236 1126.107056 5.196112 4.709434 1.193219 -0.414223 5.889121 1.345046 -0.398408 -1.222075 -0.348938 -0.325532 1.135015 0.173511 -0.096266 -11.237566 -0.128667 0.000000 0.000000 0.000000 0.121009 9.011144 -2.208535 -4.830670 8.574965 -3.932248 6.714371 -80.617885 16.792863 0.000000 0.000000 0.000000 -1.398463 6.786117 1.000139 -1.299076 7.642883 1.646658 -10.911599 -66.194743 -12.590676 0.000000 0.000000 0.000000 -1.584858 0.685406 -0.560974 -1.480067 -1.478178 -0.431638 -1.325056 -4.591417 -0.923687 0.000000 0.000000 0.000000 2.969151 0.440090 2.304150 2.961471 -6.663893 -1.791594 2.917819 1.069056 1.403583 0.000000 0.000000 0.000000 
-3253.646973 891.062195 1126.115967 5.581586 5.526178 1.310518 -0.392827 6.322403 1.341279 -0.361978 -1.254604 -0.341137 -0.282342 1.163740 0.165257 -0.130396 -11.880517 -0.067522 0.000000 0.000000 0.000000 -0.239053 7.477468 -2.697838 -6.151860 6.983880 -5.618015 -173.079112 -88.669650 -162.110711 0.000000 0.000000 0.000000 -1.190537 5.985013 1.376061 -1.569870 6.967827 2.243489 -12.131754 -76.679197 -10.919680 0.000000 0.000000 0.000000 -1.753902 0.467992 -0.407253 -1.676898 -1.008050 -0.446316 -1.484793 -4.977765 -1.021845 0.000000 0.000000 0.000000 2.935622 -0.038278 2.280055 2.934342 -5.939981 -1.653656 2.864955 0.770800 1.368020 0.000000 0.000000 0.000000 
